<svg xmlns="http://www.w3.org/2000/svg" viewBox="0 0 32 32">
  <defs>
    <linearGradient id="g" x1="0%" y1="0%" x2="100%" y2="100%">
      <stop offset="0%" stop-color="#1e40af"/>
      <stop offset="100%" stop-color="#10b981"/>
    </linearGradient>
  </defs>
  <rect width="32" height="32" rx="6" fill="url(#g)"/>
  <g stroke="white" stroke-width="2" fill="none" stroke-linecap="round" stroke-linejoin="round">
    <path d="M4 8c0-1.1.9-2 2-2h8c1.1 0 2 .9 2 2v16c0 1.1-.9 2-2 2H6c-1.1 0-2-.9-2-2V8z"/>
    <path d="M18 8c0-1.1.9-2 2-2h6c1.1 0 2 .9 2 2v16c0 1.1-.9 2-2 2h-6c-1.1 0-2-.9-2-2V8z"/>
    <path d="M8 10h4v2H8zM8 14h4v2H8zM8 18h4v2H8z"/>
    <path d="M20 12h4M20 16h4M20 20h2"/>
  </g>
</svg>